# This file uses centimeters as units for non-parametric coordinates.

mtllib Scoreboard_Card_2.mtl
g default
v -0.392695 -0.650310 0.072756
v 0.407305 -0.650310 0.072756
v -0.392695 0.614058 -0.261819
v 0.407305 0.614058 -0.261819
v -0.392695 0.609282 -0.311590
v 0.407305 0.609282 -0.311590
v -0.392695 -0.655085 0.022985
v 0.407305 -0.655085 0.022985
vt 0.375000 0.000000
vt 0.625000 0.000000
vt 0.625000 0.250000
vt 0.375000 0.250000
vt 0.625000 0.500000
vt 0.375000 0.500000
vt 0.625000 0.750000
vt 0.375000 0.750000
vt 0.625000 1.000000
vt 0.375000 1.000000
vt 0.875000 0.000000
vt 0.875000 0.250000
vt 0.125000 0.000000
vt 0.125000 0.250000
vn 0.000000 0.255813 0.966726
vn 0.000000 0.255813 0.966726
vn 0.000000 0.255813 0.966726
vn 0.000000 0.255813 0.966726
vn 0.000000 0.995429 -0.095506
vn 0.000000 0.995429 -0.095506
vn 0.000000 0.995429 -0.095506
vn 0.000000 0.995429 -0.095506
vn 0.000000 -0.255813 -0.966726
vn 0.000000 -0.255813 -0.966726
vn 0.000000 -0.255813 -0.966726
vn 0.000000 -0.255813 -0.966726
vn 0.000000 -0.995429 0.095505
vn 0.000000 -0.995429 0.095505
vn 0.000000 -0.995429 0.095505
vn 0.000000 -0.995429 0.095505
vn 1.000000 0.000000 0.000000
vn 1.000000 0.000000 0.000000
vn 1.000000 0.000000 0.000000
vn 1.000000 0.000000 0.000000
vn -1.000000 0.000000 0.000000
vn -1.000000 0.000000 0.000000
vn -1.000000 0.000000 0.000000
vn -1.000000 0.000000 0.000000
s off
g Scoreboard_Card_2 polySurface1
usemtl initialShadingGroup
f 1/1/1 2/2/2 4/3/3 3/4/4
f 3/4/5 4/3/6 6/5/7 5/6/8
f 5/6/9 6/5/10 8/7/11 7/8/12
f 7/8/13 8/7/14 2/9/15 1/10/16
f 2/2/17 8/11/18 6/12/19 4/3/20
f 7/13/21 1/1/22 3/4/23 5/14/24
